<svg xmlns="http://www.w3.org/2000/svg" xmlns:xlink="http://www.w3.org/1999/xlink" width="500" zoomAndPan="magnify" viewBox="0 0 375 374.999991" height="500" preserveAspectRatio="xMidYMid meet" version="1.0"><defs><clipPath id="67d2de7eca"><path d="M 59 5 L 317 5 L 317 370.320312 L 59 370.320312 Z M 59 5 " clip-rule="nonzero"/></clipPath></defs><g clip-path="url(#67d2de7eca)"><path fill="#ffffff" d="M 316.113281 228.351562 C 315.425781 237.277344 310.09375 244.152344 303.347656 252.863281 C 299.597656 257.710938 294.976562 263.675781 290.644531 270.726562 C 279.121094 289.535156 260.863281 302.8125 247.527344 312.511719 L 246.492188 313.265625 C 245.269531 314.15625 244.089844 315.015625 242.933594 315.867188 C 233.84375 322.585938 219.820312 329.191406 208.25 334.054688 C 206.972656 343.6875 201.816406 352.207031 193.257812 358.394531 C 182.597656 366.09375 166.8125 370.15625 147.59375 370.15625 C 144.300781 370.15625 140.917969 370.03125 137.546875 369.789062 C 116.097656 368.269531 95.640625 362.246094 81.433594 353.242188 C 59.398438 339.308594 58.28125 322.453125 59.792969 313.1875 C 61.042969 300.210938 65.597656 292.066406 69.949219 287.117188 C 75.921875 244.285156 83.167969 193.363281 85.203125 183.34375 C 85.320312 182.484375 85.648438 179.660156 86.308594 173.519531 C 81.289062 148.40625 74.835938 124.421875 68.0625 105.757812 C 60.851562 85.625 63.84375 67.679688 76.257812 56.449219 C 82.453125 50.851562 90.457031 47.699219 98.984375 47.207031 C 104.207031 29.101562 118.792969 20.351562 132.691406 19.75 C 138.417969 19.519531 144 20.601562 149.058594 22.796875 C 159.613281 8.574219 174.507812 4.511719 185.933594 5.921875 C 206.3125 8.476562 222.042969 26.695312 224.183594 50.234375 C 226.277344 73.316406 219.335938 107.839844 213.058594 133.03125 C 224.589844 131.917969 236.957031 132.363281 247.769531 135.398438 C 264.410156 140.078125 281.941406 150.164062 301.390625 166.226562 C 312.449219 175.367188 317.003906 188.625 313.5625 201.6875 C 312.960938 203.941406 312.148438 206.148438 311.132812 208.246094 C 314.851562 214.105469 316.695312 221.117188 316.113281 228.351562 Z M 316.113281 228.351562 " fill-opacity="1" fill-rule="nonzero"/></g><path fill="#edf2f4" d="M 291.855469 209.597656 C 295.277344 207.074219 298.261719 202.714844 299.5 197.992188 C 300.675781 193.546875 301.265625 184.957031 292.117188 177.394531 C 274.265625 162.648438 258.480469 153.480469 243.835938 149.363281 C 227.855469 144.875 206.699219 147.214844 192.9375 151.894531 C 197.503906 136.105469 212.429688 81.503906 209.703125 51.546875 C 208.183594 34.847656 197.679688 22.011719 184.140625 20.320312 C 174.234375 19.09375 161.296875 24.441406 154.707031 43.125 C 154.398438 43.996094 154.097656 44.902344 153.828125 45.832031 C 149.628906 37.804688 141.113281 33.917969 133.320312 34.246094 C 124.085938 34.644531 112.863281 41.355469 111.632812 58.953125 C 111.535156 60.367188 111.417969 61.875 111.300781 63.46875 C 102.066406 60.085938 92.386719 61.441406 86.019531 67.203125 C 78.179688 74.292969 76.617188 86.542969 81.734375 100.828125 C 88.945312 120.707031 95.777344 146.277344 100.992188 172.859375 C 100.195312 180.433594 99.644531 185.316406 99.507812 185.953125 C 97.164062 196.921875 85.089844 283.808594 83.644531 294.164062 C 80.746094 296.1875 75.386719 301.667969 74.214844 315.082031 C 72.441406 324.695312 77.625 333.660156 89.226562 341 C 101.273438 348.628906 119.722656 353.984375 138.59375 355.320312 C 141.675781 355.542969 144.679688 355.648438 147.59375 355.648438 C 163.402344 355.648438 176.640625 352.488281 184.730469 346.644531 C 192.300781 341.171875 195.324219 333.496094 193.539062 324.347656 C 193.722656 324.269531 193.929688 324.191406 194.132812 324.113281 C 196.261719 323.398438 197.640625 322.769531 198.105469 322.539062 C 207.320312 318.816406 224.628906 311.347656 234.289062 304.203125 C 235.785156 303.101562 237.34375 301.96875 238.960938 300.789062 C 252.007812 291.304688 268.238281 279.484375 278.25 263.152344 C 282.988281 255.425781 287.882812 249.109375 291.816406 244.035156 C 297.300781 236.957031 301.265625 231.851562 301.625 227.199219 C 302.214844 219.78125 298.203125 212.90625 291.855469 209.597656 Z M 247.828125 221.675781 C 243.992188 224.789062 240.550781 228.988281 236.90625 233.425781 C 230.480469 241.257812 223.84375 249.363281 215.414062 250.261719 C 210.546875 250.300781 206.304688 248.558594 202.726562 245.050781 C 196.953125 239.382812 193.492188 229.402344 193.480469 218.339844 C 193.472656 211.582031 195.632812 206.019531 199.898438 201.792969 C 205.597656 196.15625 214.667969 193.1875 226.160156 193.1875 L 226.820312 193.1875 C 244.535156 193.363281 260.15625 203.777344 269.410156 210.390625 C 264.140625 211.882812 256.289062 214.800781 247.828125 221.675781 Z M 247.828125 221.675781 " fill-opacity="1" fill-rule="nonzero"/><path fill="#000000" d="M 145.910156 183.90625 C 145.65625 184.261719 139.5625 192.652344 128.398438 193.390625 C 128.355469 193.394531 128.3125 193.394531 128.269531 193.394531 C 127.257812 193.394531 126.40625 192.613281 126.335938 191.589844 C 126.265625 190.523438 127.074219 189.601562 128.144531 189.53125 C 137.421875 188.917969 142.703125 181.734375 142.753906 181.660156 C 143.378906 180.792969 144.589844 180.59375 145.457031 181.214844 C 146.324219 181.832031 146.53125 183.035156 145.910156 183.90625 Z M 301.625 227.199219 C 301.265625 231.851562 297.300781 236.957031 291.816406 244.035156 C 287.882812 249.113281 282.988281 255.425781 278.25 263.152344 C 268.238281 279.488281 252.007812 291.304688 238.960938 300.789062 C 237.34375 301.96875 235.785156 303.101562 234.289062 304.203125 C 224.628906 311.351562 207.320312 318.816406 198.105469 322.539062 C 197.640625 322.769531 196.261719 323.398438 194.132812 324.113281 C 193.929688 324.191406 193.722656 324.269531 193.539062 324.347656 C 195.324219 333.496094 192.300781 341.171875 184.730469 346.648438 C 176.640625 352.488281 163.402344 355.648438 147.59375 355.648438 C 144.679688 355.648438 141.675781 355.542969 138.59375 355.320312 C 119.722656 353.988281 101.273438 348.628906 89.226562 341 C 77.625 333.660156 72.441406 324.695312 74.214844 315.082031 C 75.386719 301.671875 80.746094 296.1875 83.644531 294.167969 C 85.089844 283.808594 97.164062 196.921875 99.507812 185.957031 C 99.644531 185.316406 100.195312 180.433594 100.992188 172.863281 C 95.777344 146.277344 88.945312 120.710938 81.734375 100.828125 C 76.617188 86.542969 78.179688 74.292969 86.019531 67.203125 C 92.386719 61.441406 102.066406 60.085938 111.300781 63.472656 C 111.417969 61.875 111.535156 60.367188 111.632812 58.957031 C 112.863281 41.355469 124.085938 34.644531 133.320312 34.246094 C 141.113281 33.917969 149.628906 37.804688 153.828125 45.832031 C 154.097656 44.902344 154.398438 43.996094 154.707031 43.125 C 161.296875 24.441406 174.234375 19.09375 184.140625 20.324219 C 197.679688 22.015625 208.183594 34.847656 209.703125 51.546875 C 212.429688 81.507812 197.503906 136.105469 192.9375 151.898438 C 206.699219 147.214844 227.855469 144.875 243.835938 149.363281 C 258.480469 153.484375 274.265625 162.648438 292.117188 177.398438 C 301.265625 184.960938 300.675781 193.546875 299.5 197.996094 C 298.261719 202.714844 295.277344 207.074219 291.855469 209.597656 C 298.203125 212.90625 302.214844 219.78125 301.625 227.199219 Z M 102.308594 160.097656 C 105.03125 133.339844 109.023438 92.144531 110.984375 67.492188 C 102.792969 64.117188 94.140625 65.078125 88.617188 70.066406 C 82.007812 76.050781 80.824219 86.785156 85.386719 99.511719 C 91.5625 116.550781 97.453125 137.710938 102.308594 160.097656 Z M 286.46875 211.734375 C 286.371094 211.714844 286.28125 211.6875 286.195312 211.65625 C 281.640625 211.453125 276.5625 212.558594 274.507812 213.070312 C 274.460938 213.078125 274.410156 213.117188 274.363281 213.128906 L 274.035156 213.207031 C 269.605469 214.257812 260.390625 216.464844 250.28125 224.675781 C 246.742188 227.546875 243.429688 231.589844 239.910156 235.882812 C 232.964844 244.34375 225.78125 253.105469 215.722656 254.121094 C 215.664062 254.121094 215.605469 254.128906 215.558594 254.128906 L 215.210938 254.128906 C 209.472656 254.128906 204.21875 251.945312 200.003906 247.816406 C 193.414062 241.335938 189.617188 230.601562 189.605469 218.339844 C 189.585938 210.515625 192.136719 204.027344 197.175781 199.046875 C 203.726562 192.558594 213.996094 189.203125 226.859375 189.320312 C 247.09375 189.523438 264.332031 201.957031 273.597656 208.632812 L 274.296875 209.132812 C 276.960938 208.503906 282.183594 207.5 287 207.820312 C 290.121094 206.910156 294.316406 202.460938 295.75 197.007812 C 296.894531 192.664062 296.757812 186.253906 289.644531 180.375 C 272.222656 165.976562 256.890625 157.050781 242.789062 153.085938 C 226.742188 148.589844 203.726562 151.46875 190.730469 156.855469 L 190.71875 156.855469 C 186.195312 158.683594 183.316406 160.117188 183.289062 160.132812 L 167.773438 168.671875 C 167.480469 168.839844 167.152344 168.914062 166.839844 168.914062 C 166.152344 168.914062 165.496094 168.558594 165.136719 167.917969 C 164.621094 166.980469 164.960938 165.8125 165.902344 165.289062 L 181.476562 156.710938 C 181.648438 156.625 184.226562 155.339844 188.394531 153.625 C 191.464844 143.289062 208.707031 83.363281 205.839844 51.894531 C 204.492188 37.023438 195.371094 25.621094 183.664062 24.160156 C 172.761719 22.816406 163.3125 30.386719 158.363281 44.417969 C 157.933594 45.617188 157.539062 46.894531 157.167969 48.210938 C 157.101562 48.617188 156.742188 50.484375 156.125 53.480469 C 156.113281 53.566406 156.09375 53.644531 156.074219 53.722656 C 153.59375 65.761719 147.109375 95.1875 137.960938 121.519531 C 134.269531 132.128906 129.570312 141.972656 123.15625 152.476562 C 122.59375 153.394531 121.398438 153.675781 120.488281 153.125 C 119.578125 152.5625 119.289062 151.375 119.839844 150.464844 C 126.109375 140.195312 130.703125 130.601562 134.300781 120.253906 C 143.320312 94.28125 149.738281 65.238281 152.238281 53.171875 C 150.492188 43.164062 142.042969 38.09375 134.25 38.09375 C 134 38.09375 133.746094 38.105469 133.484375 38.113281 C 125.480469 38.453125 116.554688 44.179688 115.5 59.226562 C 115.363281 61.179688 115.199219 63.363281 115.015625 65.742188 C 115.128906 66.121094 115.148438 66.535156 115.015625 66.941406 C 114.984375 67.039062 114.9375 67.125 114.898438 67.210938 C 112.667969 95.160156 107.550781 147.648438 104.90625 172.773438 C 104.925781 173.023438 104.898438 173.277344 104.828125 173.507812 C 104.023438 181.082031 103.460938 186.003906 103.308594 186.765625 C 100.882812 198.042969 87.5 294.601562 87.367188 295.578125 C 87.316406 295.90625 87.191406 296.214844 86.988281 296.476562 C 86.753906 296.785156 86.503906 296.929688 86.339844 297.027344 C 84.691406 298.015625 79.207031 302.257812 78.0625 315.507812 C 78.0625 315.566406 78.050781 315.632812 78.042969 315.699219 C 76.132812 325.769531 84.207031 333.242188 91.300781 337.738281 C 116.488281 353.6875 164.195312 356.703125 182.453125 343.511719 C 188.714844 338.996094 191.164062 332.886719 189.78125 325.351562 C 186.203125 326.203125 181.628906 326.910156 176.230469 326.910156 C 172.269531 326.910156 167.867188 326.53125 163.121094 325.546875 C 162.074219 325.324219 161.394531 324.296875 161.617188 323.253906 C 161.832031 322.210938 162.859375 321.542969 163.90625 321.753906 C 177.394531 324.558594 187.988281 322.082031 193.113281 320.351562 C 200.324219 317.527344 221.371094 308.949219 231.984375 301.097656 C 233.476562 299.996094 235.046875 298.84375 236.675781 297.664062 C 249.449219 288.371094 265.332031 276.816406 274.945312 261.140625 C 279.789062 253.230469 284.761719 246.820312 288.753906 241.664062 C 293.628906 235.371094 297.484375 230.390625 297.765625 226.890625 C 298.328125 219.753906 293.472656 213.234375 286.46875 211.734375 Z M 226.820312 193.1875 L 226.160156 193.1875 C 214.667969 193.1875 205.597656 196.15625 199.898438 201.792969 C 195.632812 206.019531 193.472656 211.582031 193.480469 218.339844 C 193.492188 229.402344 196.953125 239.382812 202.726562 245.050781 C 206.304688 248.558594 210.546875 250.300781 215.414062 250.261719 C 223.84375 249.363281 230.480469 241.257812 236.90625 233.425781 C 240.550781 228.988281 243.992188 224.789062 247.828125 221.675781 C 256.289062 214.800781 264.140625 211.878906 269.410156 210.390625 C 260.15625 203.777344 244.535156 193.363281 226.820312 193.1875 Z M 226.820312 193.1875 " fill-opacity="1" fill-rule="nonzero"/></svg>